<svg width="28" height="28" viewBox="0 0 28 28" fill="none" xmlns="http://www.w3.org/2000/svg">
<path d="M8.83337 22C7.36671 22 6.18004 23.2 6.18004 24.6667C6.18004 26.1334 7.36671 27.3334 8.83337 27.3334C10.3 27.3334 11.5 26.1334 11.5 24.6667C11.5 23.2 10.3 22 8.83337 22ZM0.833374 0.666687V3.33335H3.50004L8.30004 13.4534L6.50004 16.72C6.28671 17.0934 6.16671 17.5334 6.16671 18C6.16671 19.4667 7.36671 20.6667 8.83337 20.6667H24.8334V18H9.39337C9.20671 18 9.06004 17.8534 9.06004 17.6667L9.10004 17.5067L10.3 15.3334H20.2334C21.2334 15.3334 22.1134 14.7867 22.5667 13.96L27.34 5.30669C27.4467 5.12002 27.5 4.89335 27.5 4.66669C27.5 3.93335 26.9 3.33335 26.1667 3.33335H6.44671L5.19337 0.666687H0.833374ZM22.1667 22C20.7 22 19.5134 23.2 19.5134 24.6667C19.5134 26.1334 20.7 27.3334 22.1667 27.3334C23.6334 27.3334 24.8334 26.1334 24.8334 24.6667C24.8334 23.2 23.6334 22 22.1667 22Z" fill="white"/>
</svg>
